<?xml version="1.0" standalone="no"?>
<!DOCTYPE svg PUBLIC "-//W3C//DTD SVG 20010904//EN"
 "http://www.w3.org/TR/2001/REC-SVG-20010904/DTD/svg10.dtd">
<svg version="1.0" xmlns="http://www.w3.org/2000/svg"
 width="512.000000pt" height="512.000000pt" viewBox="0 0 512.000000 512.000000"
 preserveAspectRatio="xMidYMid meet">

<g transform="translate(0.000000,512.000000) scale(0.100000,-0.100000)"
fill="#000000" stroke="none">
<path d="M2400 5025 c-484 -109 -757 -599 -589 -1059 16 -44 36 -90 44 -103
l15 -23 -110 0 c-104 0 -112 -1 -135 -25 -20 -19 -25 -34 -25 -72 1 -149 74
-317 185 -428 126 -125 257 -184 432 -193 l103 -5 0 -78 0 -79 -335 0 -336 0
-24 -25 c-27 -26 -30 -51 -16 -102 l9 -31 -176 -4 c-175 -3 -178 -3 -244 -35
-93 -44 -151 -100 -196 -191 l-37 -76 -3 -1183 -2 -1184 24 -24 25 -25 1551 0
1551 0 24 25 25 24 0 1151 0 1151 -25 24 c-22 23 -32 25 -120 25 l-95 0 0 135
c0 131 -1 137 -25 160 -24 25 -26 25 -209 25 l-185 0 10 32 c14 52 11 77 -16
103 l-24 25 -336 0 -335 0 0 80 0 80 73 0 c173 1 332 66 451 185 117 116 181
251 193 404 6 76 5 80 -20 105 -25 25 -31 26 -137 26 l-110 0 14 23 c26 39 68
160 82 237 73 407 -178 803 -581 915 -84 23 -282 29 -365 10z m309 -161 c214
-52 393 -218 463 -429 19 -58 23 -91 23 -195 0 -110 -4 -134 -28 -203 -21 -61
-76 -166 -102 -195 -2 -2 -33 -10 -71 -17 -72 -16 -168 -57 -231 -99 -53 -36
-144 -128 -173 -176 -24 -38 -40 -50 -40 -31 0 19 -101 134 -157 179 -71 57
-178 108 -268 127 -37 7 -68 15 -70 17 -26 29 -81 134 -102 195 -24 69 -28 93
-28 203 0 111 3 134 28 205 69 203 237 360 443 415 87 24 226 25 313 4z m-639
-1194 c186 -30 339 -165 386 -342 l13 -51 -152 6 c-221 8 -302 37 -414 148
-53 52 -114 158 -127 222 l-6 27 117 0 c65 0 147 -5 183 -10z m1274 -17 c-13
-64 -74 -170 -127 -222 -112 -111 -193 -140 -414 -148 l-152 -6 13 51 c48 178
194 310 381 341 28 5 107 9 178 10 l127 1 -6 -27z"/>
</g>
</svg>
